# xmcd
#
# Track frame offsets:
#	150
#	12235
#	26067
#	39371
#	58734
#	77081
#	92863
#	107313
#	122657
#	142772
#	161755
#	177734
#	194019
#	207328
#
# Disc length: 2982 seconds
#
# Revision: 1
# Processed by: cddbd v1.5.1PL0 Copyright (c) Steve Scherf et al.
# Submitted via: audiograbber 1.83.01
#
DISCID=bd0ba40e
DTITLE=ULISSES E MOISÉS - ULISSES E MOISÉS
DYEAR=1900
DGENRE=
TTITLE0=POR ISSO EU DIGO BYE BYE
TTITLE1=EU SOU LOUCO POR VOCÊ
TTITLE2=A FESTA ROLA A NOITE INTEIRA
TTITLE3=TÔ ABRINDO AS PORTAS DE MEU CORAÇÃO
TTITLE4=É SÓ FELICIDADE
TTITLE5=A DONA DO MEU CORAÇÃO
TTITLE6=DESEJOS DA PAIXÃO
TTITLE7=COWBOY DE CORAÇÃO
TTITLE8=BATE CORAÇÃO
TTITLE9=ENTRE LÁGRIMAS
TTITLE10=NOSSA FESTA TÁ DEMAIS
TTITLE11=CORAÇÃO CAIPIRA
TTITLE12=EU ME VEJO EM TEU OLHAR
TTITLE13=NÃO TÔ AFIM DE SOFRER
EXTD=
EXTT0=
EXTT1=
EXTT2=
EXTT3=
EXTT4=
EXTT5=
EXTT6=
EXTT7=
EXTT8=
EXTT9=
EXTT10=
EXTT11=
EXTT12=
EXTT13=
PLAYORDER=
